# xmcd
#
# Track frame offsets:
#	150
#	9097
#	20187
#	31569
#	46350
#	55647
#	66842
#	79492
#	92350
#	104115
#
# Disc length: 1625
#
# Revision: 2
# Processed by: cddbd v1.5.1PL0 Copyright (c) Steve Scherf et al.
# Submitted via: audiograbber 1.81.03
# Normalized: r1:DSETVAR1
#
DISCID=7406570a
DTITLE=Various Artist - 20th Century Masters: A Tribute To Elvis Presley
DYEAR=1999
DGENRE=Other
TTITLE0=Jerry Lee Lewis - Don't Be Cruel
TTITLE1=Ann-Margret - Heartbreak Hotel
TTITLE2=Hank Snow - (Now And Then There's) A Fool Such As I
TTITLE3=Eddy Arnold - Crying In the Chapel
TTITLE4=Chet Atkins - It's Now Or Never
TTITLE5=Jerry Reed - Guitar Man
TTITLE6=Dolly Parton - In the Ghetto
TTITLE7=Brenda Lee - Always On My Mind
TTITLE8=Ray Peterson - The Wonder of You
TTITLE9=Waylon Jennings and Jessi Colter - Suspicious Minds
EXTD=
EXTT0=
EXTT1=
EXTT2=
EXTT3=
EXTT4=
EXTT5=
EXTT6=
EXTT7=
EXTT8=
EXTT9=
PLAYORDER=
